<svg xmlns="http://www.w3.org/2000/svg" viewBox="0 0 1280 720" role="img" aria-label="Link-Up introduction video poster">
  <defs>
    <linearGradient id="bg" x1="0" y1="0" x2="1" y2="1">
      <stop offset="0" stop-color="#071321"/>
      <stop offset="0.48" stop-color="#164ED8"/>
      <stop offset="1" stop-color="#0B8F83"/>
    </linearGradient>
    <radialGradient id="glow1" cx="22%" cy="24%" r="38%">
      <stop offset="0" stop-color="#22D3EE" stop-opacity="0.55"/>
      <stop offset="1" stop-color="#22D3EE" stop-opacity="0"/>
    </radialGradient>
    <radialGradient id="glow2" cx="86%" cy="78%" r="40%">
      <stop offset="0" stop-color="#19D3A2" stop-opacity="0.42"/>
      <stop offset="1" stop-color="#19D3A2" stop-opacity="0"/>
    </radialGradient>
    <filter id="shadow" x="-20%" y="-20%" width="140%" height="140%">
      <feDropShadow dx="0" dy="24" stdDeviation="26" flood-color="#06111F" flood-opacity="0.36"/>
    </filter>
  </defs>
  <rect width="1280" height="720" fill="url(#bg)"/>
  <rect width="1280" height="720" fill="url(#glow1)"/>
  <rect width="1280" height="720" fill="url(#glow2)"/>
  <g opacity="0.16">
    <path d="M0 130H1280M0 250H1280M0 370H1280M0 490H1280M0 610H1280" stroke="#fff"/>
    <path d="M140 0V720M300 0V720M460 0V720M620 0V720M780 0V720M940 0V720M1100 0V720" stroke="#fff"/>
  </g>
  <g filter="url(#shadow)">
    <rect x="116" y="132" width="1048" height="456" rx="46" fill="#fff" fill-opacity="0.13" stroke="#fff" stroke-opacity="0.28"/>
    <circle cx="280" cy="360" r="78" fill="#fff" fill-opacity="0.16"/>
    <path d="M264 322L328 360L264 398Z" fill="#fff"/>
    <text x="410" y="292" fill="#fff" font-family="Arial, Helvetica, sans-serif" font-size="62" font-weight="800">Link-Up 2.0</text>
    <text x="410" y="354" fill="#C7F9FF" font-family="Arial, Helvetica, sans-serif" font-size="28" font-weight="700">AI-powered collaboration and team matching</text>
    <text x="410" y="418" fill="#FFFFFF" fill-opacity="0.82" font-family="Arial, Helvetica, sans-serif" font-size="26">Profile → AI Match → Request → Chat → Outcome</text>
    <rect x="410" y="468" width="230" height="54" rx="27" fill="#22D3EE" fill-opacity="0.9"/>
    <text x="525" y="503" text-anchor="middle" fill="#071321" font-family="Arial, Helvetica, sans-serif" font-size="20" font-weight="800">Watch Intro</text>
  </g>
</svg>
